<?xml version="1.0" standalone="no"?>
<!DOCTYPE svg PUBLIC "-//W3C//DTD SVG 20010904//EN"
 "http://www.w3.org/TR/2001/REC-SVG-20010904/DTD/svg10.dtd">
<svg version="1.0" xmlns="http://www.w3.org/2000/svg"
 width="567.000000pt" height="171.000000pt" viewBox="0 0 567.000000 171.000000"
 preserveAspectRatio="xMidYMid meet">

<g transform="translate(0.000000,171.000000) scale(0.100000,-0.100000)"
fill="#000000" stroke="none">
<path d="M4686 1270 c-76 -12 -154 -49 -199 -93 -52 -53 -59 -103 -55 -380 3
-198 6 -237 21 -264 49 -91 138 -124 332 -124 149 0 232 19 301 71 76 55 79
69 79 370 0 245 -2 268 -20 305 -39 77 -128 113 -295 120 -58 2 -131 0 -164
-5z m180 -250 c11 -10 14 -45 14 -176 0 -148 2 -164 17 -164 16 0 16 -1 0 -17
-13 -13 -34 -18 -81 -18 -97 0 -96 -3 -96 204 0 108 4 181 10 187 13 13 115 1
136 -16z"/>
<path d="M508 1239 l-28 -21 0 -379 c0 -243 4 -387 10 -400 10 -17 22 -19 116
-19 91 0 110 3 135 21 l29 20 0 140 c0 117 2 139 15 139 8 0 15 -4 15 -10 0
-6 28 -10 65 -10 l65 0 0 -131 c0 -72 5 -139 10 -150 10 -17 22 -19 116 -19
91 0 110 3 135 21 l29 20 0 388 c0 288 -3 390 -12 399 -8 8 -48 12 -116 12
-89 0 -108 -3 -133 -21 -29 -20 -29 -21 -29 -125 0 -84 3 -106 15 -110 8 -4
15 -12 15 -20 0 -11 -20 -14 -95 -14 l-95 0 0 133 c0 90 -4 137 -12 145 -8 8
-48 12 -118 12 -90 -1 -109 -4 -132 -21z"/>
<path d="M1378 1239 l-28 -21 0 -387 c0 -288 3 -390 12 -399 9 -9 87 -12 291
-12 267 0 280 1 308 21 30 21 30 21 27 112 l-3 92 -175 5 -175 5 -3 44 c-4 48
10 73 30 53 8 -8 46 -12 103 -12 122 0 135 11 135 115 0 103 -3 105 -151 105
l-119 0 0 45 c0 33 4 45 14 45 8 0 18 -4 21 -10 4 -6 63 -10 144 -10 177 0
181 3 181 123 0 51 -5 88 -12 95 -9 9 -87 12 -292 12 -267 -1 -282 -2 -308
-21z"/>
<path d="M2123 1243 l-23 -15 0 -398 c0 -354 2 -399 16 -404 9 -3 58 -6 111
-6 80 0 99 3 124 21 l29 20 0 140 c0 107 3 139 13 139 7 0 17 -4 22 -9 6 -6
35 -11 65 -13 l55 -3 3 -134 c1 -79 7 -140 14 -148 7 -9 41 -13 117 -13 100 0
108 2 134 25 l27 26 0 172 c0 95 -5 188 -10 208 -13 47 -52 88 -90 95 -17 4
-33 10 -35 14 -3 4 22 69 55 145 33 75 58 141 55 146 -4 5 -54 9 -113 9 -143
0 -151 -6 -214 -146 -26 -58 -46 -116 -45 -128 2 -16 -4 -22 -25 -24 l-27 -3
-3 148 -3 148 -115 2 c-91 2 -120 -1 -137 -14z"/>
<path d="M2958 1244 c-28 -14 -28 -16 -28 -109 0 -110 4 -115 94 -115 l56 0 0
-165 c0 -140 2 -165 15 -165 8 0 15 -7 15 -15 0 -12 -13 -15 -56 -15 -40 0
-67 -6 -90 -21 l-34 -21 0 -87 c0 -54 5 -92 12 -99 9 -9 83 -12 272 -12 324 1
311 -5 311 131 0 106 -2 109 -92 109 l-63 0 0 190 c0 183 1 190 20 190 11 0
20 -4 20 -10 0 -16 49 -12 80 7 16 9 31 26 34 37 9 34 7 133 -4 160 l-10 26
-262 0 c-214 -1 -268 -4 -290 -16z"/>
<path d="M3803 1241 c-75 -25 -129 -67 -153 -115 -18 -39 -20 -61 -20 -293 0
-279 3 -298 64 -351 56 -49 90 -55 341 -59 205 -4 233 -3 263 13 l32 17 -2
206 -3 206 -112 3 c-152 4 -163 -3 -163 -101 0 -53 4 -73 17 -82 28 -21 5 -35
-58 -35 -96 0 -99 7 -99 199 0 110 4 162 12 167 6 4 69 6 140 5 116 -2 132 0
163 19 l35 22 0 83 c0 46 -3 90 -6 99 -10 25 -378 23 -451 -3z"/>
</g>
</svg>
